<svg width="24" height="24" viewBox="0 0 24 24" fill="none" xmlns="http://www.w3.org/2000/svg">
<path d="M19.7886 2.00515C16.738 1.88992 14.6773 3.70703 13.5902 7.42791C14.1493 7.16791 14.6929 7.05172 15.2191 7.05172C16.3365 7.05172 16.8305 7.71552 16.6985 9.03454C16.6325 9.83357 16.1412 10.9955 15.2209 12.524C14.296 14.0525 13.6048 14.8182 13.1447 14.8182C11.7496 14.8182 10.9108 7.88123 10.6267 5.98698C10.2316 3.3537 9.17835 2.1223 7.46696 2.29467C5.89583 2.44991 3.15413 5.3889 1 7.38124L2.0349 8.78312C3.0203 8.05742 3.59504 7.69361 3.75912 7.69361C5.47417 7.69361 6.30465 13.7573 7.63654 18.2667C8.53028 20.7553 9.60184 22 10.8934 22C12.9687 22 15.4968 19.9581 18.4924 15.8725C21.3845 11.9612 22.8823 8.87835 22.9785 6.62983L22.9904 6.6203C23.1133 3.60608 22.0545 2.06325 19.7886 2.00515Z" fill="#1E212C"/>
</svg>
