<svg width="20" height="21" viewBox="0 0 20 21" fill="none" xmlns="http://www.w3.org/2000/svg">
<path fill-rule="evenodd" clip-rule="evenodd" d="M9.99972 0.444458C4.48587 0.444458 0 4.97604 0 10.5456C0 16.1152 4.48587 20.6465 9.99972 20.6465C15.5138 20.6465 20 16.1155 20 10.5456C20 4.97604 15.5138 0.444458 9.99972 0.444458ZM16.58 5.21193C17.7206 6.64175 18.4139 8.44752 18.4458 10.4152C18.0663 10.3364 16.4588 10.0333 14.538 10.0333C13.9182 10.0333 13.2659 10.0648 12.6119 10.1464C12.5566 10.0106 12.5014 9.87536 12.4434 9.7387C12.2738 9.33524 12.091 8.9349 11.9018 8.54052C14.8582 7.3086 16.2842 5.59895 16.58 5.21193ZM15.566 4.14503C14.0783 2.82635 12.1305 2.02568 9.99972 2.02568C9.34514 2.02568 8.70767 2.10195 8.09514 2.24541C8.43883 2.71436 9.8831 4.73448 11.2026 7.17393C14.0533 6.08462 15.3305 4.46995 15.566 4.14503ZM6.37082 2.85357C6.66209 3.2593 8.1086 5.30096 9.46204 7.72085C5.82978 8.68653 2.60428 8.74948 1.8258 8.74948H1.7431C2.30237 6.14275 4.04379 3.97661 6.37082 2.85357ZM1.55472 10.3483C1.55248 10.4183 1.55136 10.4886 1.55136 10.5589C1.55136 12.7256 2.35563 14.7052 3.6788 16.213C4.03594 15.6162 6.35681 11.9647 10.5794 10.5853C10.6722 10.5547 10.7656 10.5272 10.8603 10.4997C10.6588 10.0429 10.4421 9.58588 10.2145 9.13564C6.46417 10.2612 2.8249 10.3488 1.77646 10.3488C1.67975 10.3488 1.60518 10.3488 1.55472 10.3483ZM9.99972 19.0916C8.06207 19.0916 6.27383 18.4279 4.84694 17.3151C5.0883 16.8365 6.8401 13.6465 11.4675 12.0177C11.4703 12.0165 11.4734 12.0154 11.4768 12.0146C12.6371 15.0698 13.1285 17.634 13.2633 18.4287C12.2592 18.8557 11.1564 19.0916 9.99972 19.0916ZM13.1658 11.5958C14.2165 14.5269 14.6717 16.93 14.785 17.5875C16.6349 16.2983 17.9525 14.2842 18.334 11.9567C18.013 11.8575 16.6318 11.4665 14.866 11.4665C14.3283 11.4665 13.755 11.5031 13.1658 11.5958Z" fill="#5A5A5A"/>
</svg>
