<?xml version="1.0" encoding="utf-8"?><svg viewBox="0 0 502.66 502.66" xmlns="http://www.w3.org/2000/svg" xmlns:xlink="http://www.w3.org/1999/xlink"><style>:root>svg{display:none}:root>svg:target{display:block}</style><svg viewBox="0 0 24 24" id="be" xmlns="http://www.w3.org/2000/svg"><g clip-path="url(#aa)"><path d="M12.365 15.144c0-1.972-.879-3.429-2.695-3.975 1.325-.673 2.016-1.693 2.016-3.279C11.686 4.763 9.494 4 6.964 4H0v15.703h7.16c2.684 0 5.205-1.369 5.205-4.56zM3.247 6.68h3.046c1.171 0 2.226.35 2.226 1.794 0 1.333-.82 1.87-1.98 1.87H3.246V6.68zm-.001 10.355v-4.324h3.538c1.43 0 2.334.633 2.334 2.242 0 1.586-1.08 2.082-2.4 2.082H3.245zM18.8 20c2.554 0 4.208-1.224 5.004-3.824h-2.592c-.28.97-1.43 1.484-2.322 1.484-1.721 0-2.625-1.072-2.625-2.894h7.714c.244-3.646-1.66-6.753-5.18-6.753-3.26 0-5.473 2.604-5.473 6.017 0 3.541 2.097 5.97 5.473 5.97zm-.093-9.628c1.476 0 2.218.922 2.342 2.429h-4.78c.097-1.495 1.03-2.429 2.438-2.429zM15.67 4.825h5.99v1.547h-5.99V4.825z"/></g><defs><clipPath id="aa"><path d="M0 0h24v24H0z"/></clipPath></defs></svg><svg viewBox="0 0 24 24" id="fb" xmlns="http://www.w3.org/2000/svg"><path d="M17.563 1.005L14.786 1c-3.12 0-5.137 2.125-5.137 5.414v2.497H6.857c-.242 0-.437.2-.437.448v3.617c0 .248.196.449.437.449h2.792v9.126c0 .248.195.449.437.449h3.643a.443.443 0 00.437-.449v-9.126h3.265c.241 0 .436-.2.436-.449l.002-3.617a.456.456 0 00-.128-.317.431.431 0 00-.31-.131h-3.265V6.794c0-1.017.236-1.533 1.525-1.533h1.871a.444.444 0 00.437-.45V1.454a.443.443 0 00-.436-.448z"/></svg><svg viewBox="0 0 22 15" id="google" xmlns="http://www.w3.org/2000/svg"><path d="M.004 7.32C-.126 3.844 2.87.633 6.294.59c1.745-.151 3.443.537 4.764 1.66a30.352 30.352 0 01-1.682 1.764c-1.163-.718-2.563-1.265-3.921-.78-2.192.635-3.52 3.264-2.708 5.443.672 2.275 3.395 3.523 5.53 2.567 1.105-.402 1.834-1.438 2.153-2.551-1.266-.026-2.533-.01-3.8-.045-.003-.766-.006-1.529-.003-2.295 2.112-.003 4.228-.01 6.343.01.13 1.876-.142 3.884-1.343 5.39-1.643 2.15-4.68 2.78-7.151 1.937-2.622-.874-4.529-3.558-4.472-6.37zM18.01 3.682h1.983l.014 2.067c.663.007 1.33.01 1.993.013v2.06l-1.993.011c-.007.692-.01 1.38-.014 2.07-.663-.003-1.327 0-1.986 0-.007-.69-.007-1.378-.014-2.066-.663-.008-1.33-.01-1.993-.015v-2.06c.663-.003 1.327-.007 1.993-.014.004-.687.01-1.378.017-2.066z"/></svg><svg viewBox="0 0 502.664 502.664" id="icon" xmlns="http://www.w3.org/2000/svg"><path d="M153.821 358.226L0 274.337v-46.463l153.821-83.414v54.574L46.636 250.523l107.185 53.431v54.272zm26.273 29.358L282.103 115.08h32.227L212.084 387.584h-31.99zm168.749-29.358v-54.272l107.164-52.999-107.164-52.59v-53.927l153.821 83.522v46.183l-153.821 84.083z"/></svg><svg viewBox="0 0 18 18" id="inst" xmlns="http://www.w3.org/2000/svg"><path fill-rule="evenodd" clip-rule="evenodd" d="M5.813.5h6.375A5.313 5.313 0 0117.5 5.813v6.375a5.313 5.313 0 01-5.313 5.312H5.814A5.313 5.313 0 01.5 12.187V5.814A5.313 5.313 0 015.813.5zm6.375 15.406a3.723 3.723 0 003.718-3.719V5.814a3.723 3.723 0 00-3.719-3.72H5.814a3.723 3.723 0 00-3.72 3.72v6.375a3.723 3.723 0 003.72 3.718h6.375z"/><path fill-rule="evenodd" clip-rule="evenodd" d="M4.75 9a4.25 4.25 0 118.5 0 4.25 4.25 0 01-8.5 0zm1.594 0A2.66 2.66 0 009 11.656 2.66 2.66 0 0011.656 9 2.66 2.66 0 009 6.344 2.66 2.66 0 006.344 9z"/><path d="M13.604 5.458a1.063 1.063 0 100-2.125 1.063 1.063 0 000 2.125z"/></svg><svg viewBox="0 0 15 21" id="pin" xmlns="http://www.w3.org/2000/svg"><path d="M13.055 2.818C11.74 1.483 9.923.748 7.935.748 4.9.747 3.034 2.064 2.002 3.17.729 4.532 0 6.34 0 8.13c0 2.25.889 3.976 2.377 4.618.1.043.2.065.299.065.314 0 .562-.218.648-.566.05-.2.167-.694.218-.908.108-.424.02-.627-.216-.922-.43-.539-.63-1.176-.63-2.006 0-2.464 1.733-5.083 4.945-5.083 2.55 0 4.133 1.534 4.133 4.002 0 1.558-.317 3.001-.893 4.063-.4.738-1.103 1.617-2.184 1.617-.467 0-.886-.203-1.15-.557-.251-.334-.333-.767-.233-1.217.114-.51.269-1.04.419-1.554.273-.938.532-1.823.532-2.53 0-1.209-.702-2.02-1.747-2.02-1.328 0-2.368 1.426-2.368 3.249 0 .893.225 1.562.326 1.818-.167.75-1.16 5.21-1.35 6.05-.108.492-.765 4.369.322 4.678 1.221.347 2.313-3.429 2.424-3.855.09-.348.405-1.66.598-2.466.59.6 1.539 1.007 2.463 1.007 1.741 0 3.307-.83 4.41-2.335C14.41 11.817 15 9.78 15 7.545c0-1.748-.71-3.47-1.945-4.727z"/></svg><svg viewBox="0 0 20 21" id="sh" xmlns="http://www.w3.org/2000/svg"><path fill-rule="evenodd" clip-rule="evenodd" d="M10 .444C4.486.444 0 4.976 0 10.546s4.486 10.1 10 10.1 10-4.53 10-10.1C20 4.976 15.514.444 10 .444zm6.58 4.768a8.54 8.54 0 011.866 5.203 20.643 20.643 0 00-3.908-.382c-.62 0-1.272.032-1.926.113-.055-.135-.11-.27-.169-.407-.17-.404-.352-.804-.541-1.198 2.956-1.232 4.382-2.942 4.678-3.33zm-1.014-1.067a8.365 8.365 0 00-7.47-1.9c.343.47 1.787 2.49 3.107 4.929 2.85-1.09 4.128-2.704 4.363-3.029zM6.371 2.854A55.26 55.26 0 019.462 7.72c-3.632.966-6.858 1.028-7.636 1.028h-.083a8.55 8.55 0 014.628-5.895zm-4.816 7.494a8.546 8.546 0 002.124 5.865c.357-.597 2.678-4.248 6.9-5.628.093-.03.187-.058.281-.085a28.767 28.767 0 00-.646-1.364c-3.75 1.125-7.39 1.213-8.438 1.213h-.221zM10 19.092a8.353 8.353 0 01-5.153-1.777c.241-.479 1.993-3.669 6.62-5.297a.056.056 0 01.01-.003c1.16 3.055 1.652 5.619 1.786 6.414a8.319 8.319 0 01-3.263.663zm3.166-7.496c1.05 2.93 1.506 5.334 1.619 5.991a8.559 8.559 0 003.549-5.63c-.321-.1-1.702-.49-3.468-.49-.538 0-1.111.036-1.7.129z"/></svg><svg viewBox="0 0 24 24" id="tw" xmlns="http://www.w3.org/2000/svg"><path d="M22.5 5.772a8.902 8.902 0 01-2.474.65 4.18 4.18 0 001.894-2.28 8.922 8.922 0 01-2.737 1 4.387 4.387 0 00-3.145-1.302c-2.379 0-4.308 1.847-4.308 4.124 0 .323.038.638.112.94-3.58-.173-6.754-1.815-8.879-4.31a3.962 3.962 0 00-.583 2.073c0 1.431.762 2.694 1.916 3.433a4.455 4.455 0 01-1.95-.518v.052c0 1.997 1.485 3.665 3.454 4.044-.36.093-.741.145-1.135.145a4.31 4.31 0 01-.81-.077c.548 1.64 2.138 2.832 4.023 2.865a8.89 8.89 0 01-5.35 1.763c-.348 0-.69-.02-1.028-.057a12.572 12.572 0 006.603 1.856c7.925 0 12.257-6.285 12.257-11.736l-.015-.534a8.412 8.412 0 002.155-2.13z"/></svg><svg viewBox="0 0 24 24" id="vi" xmlns="http://www.w3.org/2000/svg"><path d="M19.789 2.005c-3.051-.115-5.112 1.702-6.199 5.423a3.828 3.828 0 011.63-.376c1.117 0 1.61.664 1.478 1.983-.066.799-.557 1.96-1.477 3.489-.925 1.529-1.616 2.294-2.076 2.294-1.395 0-2.234-6.937-2.518-8.831-.395-2.633-1.449-3.865-3.16-3.692C5.896 2.45 3.154 5.389 1 7.38l1.035 1.402c.985-.726 1.56-1.09 1.724-1.09 1.715 0 2.546 6.064 3.878 10.574C8.53 20.755 9.602 22 10.893 22c2.076 0 4.604-2.042 7.6-6.127 2.892-3.912 4.39-6.995 4.486-9.243l.011-.01c.123-3.014-.935-4.557-3.201-4.615z"/></svg><svg viewBox="0 0 16 20" id="yt" xmlns="http://www.w3.org/2000/svg"><path fill-rule="evenodd" clip-rule="evenodd" d="M5.049 7.665h-1.17l-.002-4.04L2.407.15h1.265l.746 2.58.735-2.573h1.28L5.05 3.622l-.001 4.043zm1.417-4.697c-.084.285-.126.68-.126 1.186V5.55c0 .462.022.808.07 1.04.045.23.122.428.232.59.108.162.26.285.457.366.196.082.434.12.717.12.253 0 .477-.046.673-.141.194-.094.354-.241.477-.438a1.7 1.7 0 00.244-.64c.038-.23.058-.589.058-1.078V4.036c0-.386-.02-.674-.062-.863a1.7 1.7 0 00-.23-.55 1.23 1.23 0 00-.475-.432 1.543 1.543 0 00-.739-.167c-.34 0-.621.087-.84.26-.22.172-.372.4-.456.684zm3.632 4.163a.75.75 0 00.267.338.778.778 0 00.456.127c.16 0 .302-.044.425-.133.124-.09.228-.222.313-.4l-.021.437h1.24V2.228h-.976v4.103a.407.407 0 01-.814 0V2.228H9.969v3.556c0 .453.008.755.022.908.015.152.05.298.107.44zM16 16.875v-5.66c0-1.358-1.178-2.47-2.618-2.47H2.618C1.178 8.745 0 9.857 0 11.215v5.66c0 1.357 1.177 2.468 2.618 2.468h10.764c1.44 0 2.618-1.11 2.618-2.468zm-6.419-3.996c-.266 0-.485.18-.485.4v2.975c0 .22.219.398.485.398.269 0 .488-.178.488-.398v-2.976c0-.22-.22-.4-.488-.4zm3.953 1.31H12.48l.005-.611c0-.272.223-.494.497-.494h.067c.274 0 .498.222.498.494l-.013.612zm-10.198 3.3v-5.962h1.333v-.883l-3.556-.006v.869l1.11.003v5.98h1.113zm2.887-5.074h1.112v5.073l-.893-.002.002-.657c-.24.515-1.2.93-1.7.569-.235-.169-.257-.449-.277-.71a6.415 6.415 0 00-.008-.11 7.343 7.343 0 01-.006-.552l.002-.456-.004-3.155h1.106l.005 3.206c0 .166-.003.306-.006.42-.004.187-.007.305.01.357.158.482.565.22.656-.027.017-.049.014-.152.009-.327a14.128 14.128 0 01-.008-.445v-3.184zm4.672 3.646l-.002-2.65c-.001-1.01-.757-1.615-1.784-.798l.005-1.97-1.111.002-.006 6.8.914-.014.083-.424c1.168 1.073 1.903.338 1.9-.946zm2.647-.347l.835-.004c.38 2.26-2.811 2.63-2.812.004v-1.58c0-.474.047-.847.142-1.12.094-.274.255-.477.467-.629.674-.486 2.008-.335 2.144.615.044.3.057.825.057 1.35v.719h-1.91v1.224c0 .249.206.451.456.451h.164c.25 0 .455-.202.455-.451v-.466l.001-.051.001-.062zM7.311 6.248c0 .298.222.542.493.542.27 0 .492-.243.492-.542V3.442c0-.299-.221-.542-.492-.542-.27 0-.493.243-.493.542v2.806z"/></svg></svg>